<?xml version="1.0" standalone="no"?>
<!DOCTYPE svg PUBLIC "-//W3C//DTD SVG 20010904//EN"
 "http://www.w3.org/TR/2001/REC-SVG-20010904/DTD/svg10.dtd">
<svg version="1.0" xmlns="http://www.w3.org/2000/svg"
 width="512.000000pt" height="512.000000pt" viewBox="0 0 512.000000 512.000000"
 preserveAspectRatio="xMidYMid meet">

<g transform="translate(0.000000,512.000000) scale(0.100000,-0.100000)"
fill="#000000" stroke="none">
<path d="M2571 4469 c-844 -95 -1514 -710 -1681 -1541 -11 -54 -22 -135 -25
-180 -3 -46 -8 -107 -11 -135 l-5 -53 -317 0 -317 0 425 -428 425 -429 422
426 421 426 -315 3 -316 2 6 99 c13 191 68 393 152 562 83 165 172 285 306
414 206 198 440 323 729 388 130 29 461 31 590 4 300 -64 553 -200 766 -412
588 -585 588 -1522 -1 -2110 -209 -210 -466 -348 -765 -412 -123 -26 -449 -26
-575 1 -255 53 -499 174 -693 344 l-74 65 -149 -149 -149 -149 48 -48 c61 -63
227 -189 333 -252 183 -108 423 -196 649 -237 157 -29 477 -31 625 -4 362 65
663 202 924 421 553 463 796 1168 649 1880 -39 191 -127 413 -229 581 -294
483 -766 807 -1318 905 -135 23 -402 33 -530 18z"/>
<path d="M2560 2878 l1 -533 444 -263 c244 -144 450 -265 457 -267 9 -4 38 36
80 107 37 62 70 120 73 129 5 13 -72 63 -364 235 l-370 219 -1 453 0 452 -160
0 -160 0 0 -532z"/>
</g>
</svg>
