<?xml version="1.0" standalone="no"?>
<!DOCTYPE svg PUBLIC "-//W3C//DTD SVG 20010904//EN"
 "http://www.w3.org/TR/2001/REC-SVG-20010904/DTD/svg10.dtd">
<svg version="1.0" xmlns="http://www.w3.org/2000/svg"
 width="330.000000pt" height="577.000000pt" viewBox="0 0 330.000000 577.000000"
 preserveAspectRatio="xMidYMid meet">

<g transform="translate(0.000000,577.000000) scale(0.100000,-0.100000)"
fill="#000000" stroke="none">
<path d="M1840 5609 c-19 -5 -114 -11 -210 -12 -196 -4 -301 -21 -494 -84
-323 -104 -489 -240 -626 -513 -148 -295 -180 -655 -84 -968 95 -314 271 -494
499 -511 l80 -6 21 -60 c45 -124 54 -325 23 -526 -15 -103 -17 -106 -70 -90
-58 17 -65 7 -100 -134 l-28 -117 -83 -87 c-371 -389 -577 -1125 -582 -2077
-1 -199 2 -254 13 -267 12 -16 121 -17 1392 -17 1352 0 1378 0 1389 19 6 12
10 101 10 220 l0 201 89 0 c63 0 92 4 100 14 12 14 12 15 -20 301 -53 479
-140 756 -311 987 -68 92 -136 153 -340 301 -97 71 -181 134 -187 141 -6 7
-18 50 -28 97 l-18 84 -49 16 c-58 18 -60 22 -86 174 -57 337 -24 586 103 777
l32 48 187 0 188 0 31 28 32 29 -17 224 c-9 123 -19 249 -22 281 l-6 56 88 7
c115 9 123 11 130 43 3 15 8 35 11 45 3 12 -12 34 -49 70 -30 29 -66 68 -80
87 -33 43 -90 188 -153 384 -125 388 -307 702 -461 792 -85 50 -218 68 -314
43z m255 -91 c100 -52 176 -147 282 -354 79 -154 139 -299 182 -444 42 -140
110 -309 145 -360 17 -25 50 -64 73 -87 24 -22 43 -43 43 -46 0 -3 -43 -8 -95
-12 -52 -4 -102 -13 -111 -20 -16 -11 -16 -30 4 -301 12 -159 18 -292 13 -297
-4 -4 -160 -8 -347 -7 l-339 0 -38 27 c-109 76 -294 273 -444 475 l-82 111 55
33 c126 76 226 192 273 317 71 192 38 401 -92 573 -26 34 -67 77 -92 95 -24
19 -45 38 -45 43 -1 34 152 192 221 226 126 65 299 77 394 28z m-548 -60 c-41
-40 -82 -85 -93 -101 -17 -25 -22 -26 -54 -17 -19 5 -74 10 -122 10 -97 0
-234 -36 -269 -71 -18 -18 -18 -22 -4 -55 8 -20 15 -37 15 -39 0 -1 -25 -19
-56 -40 -77 -53 -159 -147 -196 -225 -18 -36 -33 -66 -33 -68 -1 -1 -21 5 -45
13 -71 25 -89 21 -110 -28 -60 -135 -44 -340 39 -482 37 -64 112 -148 157
-176 l36 -22 40 40 40 41 68 -46 67 -45 -18 -43 c-11 -23 -17 -49 -13 -57 8
-21 92 -55 178 -74 73 -15 201 -12 250 7 23 8 31 2 97 -78 40 -48 88 -104 107
-124 l34 -36 -38 -20 c-69 -35 -212 -81 -322 -104 -84 -17 -142 -22 -272 -22
l-166 -1 -68 35 c-103 52 -174 128 -234 253 -55 114 -72 164 -99 287 -22 104
-24 349 -4 460 58 322 243 607 471 725 172 88 466 168 643 174 l47 1 -73 -72z
m-173 -184 c9 -3 16 -14 16 -24 0 -15 -8 -17 -69 -12 -60 4 -151 -6 -218 -24
-17 -5 -23 -2 -23 9 0 20 6 24 71 41 55 15 194 21 223 10z m8 -115 c31 -6 84
-25 119 -43 54 -26 69 -40 97 -86 50 -84 72 -167 72 -274 0 -130 -30 -215
-113 -324 -45 -59 -138 -130 -210 -161 -56 -24 -66 -43 -43 -82 l17 -29 -38 0
c-126 1 -266 61 -358 154 -97 96 -145 215 -145 357 0 312 293 550 602 488z
m-687 -368 c17 -7 19 -16 16 -99 -4 -141 24 -242 97 -352 23 -33 28 -49 21
-61 -19 -36 -33 -33 -82 22 -100 108 -150 268 -127 410 6 40 13 76 16 80 6 11
32 10 59 0z m504 -692 c36 -6 89 -9 119 -7 48 4 55 2 69 -19 9 -13 13 -27 9
-31 -15 -14 -200 -6 -258 12 -59 18 -63 22 -52 51 5 11 13 15 28 10 11 -3 50
-11 85 -16z m675 -546 l28 -23 -78 -320 c-43 -176 -81 -320 -84 -320 -3 0 -11
15 -18 33 -16 43 -87 115 -137 138 -44 21 -166 26 -209 9 -14 -5 -26 -7 -26
-4 0 12 121 491 129 509 5 12 26 25 52 33 24 7 76 28 114 46 l70 32 65 -55
c36 -31 78 -66 94 -78z m-543 -269 c-48 -192 -79 -298 -100 -338 -22 -42 -31
-72 -31 -107 0 -43 -3 -49 -20 -49 -26 0 -31 -24 78 415 83 332 88 349 112
355 14 4 26 6 28 5 1 -1 -29 -128 -67 -281z m-71 241 c0 -18 -119 -508 -125
-514 -3 -2 -2 38 2 90 7 110 -11 280 -37 359 -10 30 -18 55 -17 56 1 1 38 6
82 11 44 6 83 11 88 12 4 0 7 -6 7 -14z m760 -19 c0 -7 -45 -193 -99 -412 -54
-219 -102 -414 -106 -431 -7 -33 -19 -40 -44 -24 -11 7 -3 50 42 232 30 123
79 320 107 437 50 202 54 212 76 212 14 0 24 -6 24 -14z m160 9 c0 -2 -15 -33
-34 -67 -36 -67 -67 -155 -88 -253 -20 -96 -15 -366 11 -509 12 -66 19 -121
17 -123 -5 -5 -195 43 -204 51 -4 5 162 698 210 874 8 29 12 32 48 32 22 0 40
-2 40 -5z m-634 -516 c36 -11 99 -73 113 -112 16 -42 13 -124 -5 -159 l-16
-30 -27 26 c-25 24 -27 32 -23 79 4 50 2 56 -31 91 -34 36 -39 37 -92 35 -49
-2 -59 1 -82 24 -15 14 -24 29 -20 33 4 4 28 13 54 20 48 12 69 11 129 -7z
m-192 -187 l1 -69 -40 11 c-39 11 -40 13 -43 59 -2 29 3 60 14 83 l17 36 25
-26 c23 -22 26 -34 26 -94z m159 27 c16 -26 0 -68 -29 -75 -29 -7 -64 18 -64
47 0 44 70 65 93 28z m325 -293 c206 -52 375 -96 377 -98 1 -1 6 -22 10 -45 6
-38 4 -43 -12 -43 -10 0 -184 34 -388 75 -203 41 -485 98 -625 126 -140 28
-258 54 -262 58 -6 5 10 89 27 138 3 8 79 -7 252 -52 136 -35 416 -107 621
-159z m-247 -136 c354 -71 652 -133 664 -136 11 -4 52 -30 90 -59 39 -28 131
-97 205 -152 141 -104 189 -150 263 -251 151 -206 250 -568 293 -1079 l7 -83
-224 0 c-164 0 -241 -4 -288 -15 -158 -38 -325 -171 -394 -315 -19 -41 -38
-83 -41 -93 -5 -16 -27 -17 -276 -17 -250 0 -270 1 -270 18 0 9 10 128 22 265
l22 247 38 0 c26 0 40 6 47 18 19 35 34 322 28 527 -11 362 -70 628 -184 825
-56 96 -182 220 -266 259 -184 87 -421 75 -574 -30 -23 -16 -45 -29 -49 -29
-10 0 63 88 135 163 41 41 74 67 87 67 12 0 311 -58 665 -130z m-409 -51 c52
-11 156 -56 191 -83 9 -7 15 -20 11 -27 -3 -8 -82 -81 -175 -164 l-169 -150
-2 -405 -3 -404 -43 -8 c-118 -20 -229 -105 -287 -221 -19 -38 -35 -76 -35
-83 0 -11 -25 -14 -119 -14 l-119 0 -9 78 c-12 120 -9 565 5 667 68 480 227
736 502 809 67 18 180 20 252 5z m309 -201 c115 -145 188 -381 220 -713 11
-117 6 -540 -7 -612 l-6 -33 -118 0 -117 0 -12 43 c-39 130 -151 234 -294 271
l-52 13 -3 391 -2 391 167 150 c92 83 171 151 175 151 4 0 26 -24 49 -52z
m-1139 -868 c-6 -156 14 -494 32 -531 11 -22 10 -31 -4 -60 -25 -48 -75 -191
-99 -278 -11 -41 -23 -77 -27 -80 -15 -14 15 512 42 734 18 154 51 345 59 345
1 0 0 -58 -3 -130z m688 -269 c0 -37 -2 -39 -44 -50 -103 -26 -186 -132 -186
-238 0 -78 17 -127 62 -178 52 -59 114 -87 191 -88 75 0 128 21 181 71 145
139 78 389 -116 436 -25 6 -28 11 -28 50 l0 44 42 -10 c99 -22 191 -98 239
-196 19 -38 23 -64 23 -137 1 -77 -3 -98 -25 -145 -33 -69 -93 -131 -161 -166
-75 -39 -190 -45 -270 -14 -76 28 -159 104 -195 178 -23 48 -27 70 -28 142 0
71 4 94 26 140 33 70 79 123 137 157 46 27 131 54 145 46 4 -2 7 -21 7 -42z
m116 -121 c78 -38 125 -140 103 -223 -16 -61 -54 -106 -113 -133 -64 -30 -98
-30 -161 0 -58 27 -78 47 -100 99 -31 75 -15 165 41 221 59 59 152 73 230 36z
m-492 -207 c4 -27 14 -74 25 -105 l18 -58 -78 0 c-91 0 -84 -9 -94 128 l-6 82
65 0 65 0 5 -47z m932 -50 c-4 -54 -10 -101 -12 -105 -3 -4 -39 -8 -81 -8 -74
0 -75 1 -68 23 24 75 35 125 35 154 l0 33 66 0 67 0 -7 -97z m-1115 -39 c26
-274 34 -385 30 -390 -2 -2 -51 -4 -108 -4 -84 0 -103 3 -103 15 0 80 145 523
165 503 2 -2 9 -58 16 -124z m2437 -206 l-3 -183 -338 -3 -338 -2 7 22 c30 99
155 242 249 287 104 50 153 60 293 60 l132 1 -2 -182z m-2130 33 c23 -22 72
-54 109 -73 63 -31 74 -33 168 -33 92 0 106 3 167 32 37 17 87 50 111 72 l44
41 97 0 97 0 -6 -67 c-4 -38 -10 -102 -13 -143 l-7 -75 -487 -3 -486 -2 -6 37
c-3 21 -8 74 -11 118 -3 44 -8 92 -11 108 l-6 27 100 0 99 0 41 -39z"/>
<path d="M2245 4901 c-95 -27 -169 -71 -173 -102 -5 -41 22 -42 96 -5 63 31
138 53 206 59 37 3 55 29 37 51 -18 21 -88 20 -166 -3z"/>
<path d="M2245 4776 c-83 -39 -128 -103 -105 -146 18 -33 71 -50 158 -50 70 0
82 3 105 24 73 68 21 196 -80 196 -15 0 -50 -11 -78 -24z m115 -66 c6 -12 8
-30 5 -40 -5 -17 -15 -20 -68 -20 -98 0 -105 19 -22 63 41 22 72 21 85 -3z"/>
<path d="M1228 5008 c-110 -14 -209 -88 -264 -198 -24 -47 -28 -68 -28 -140
-1 -71 4 -94 26 -142 33 -72 93 -136 160 -174 49 -27 61 -29 158 -29 94 0 110
3 155 27 62 32 139 113 168 176 17 37 22 66 22 137 0 79 -4 97 -28 147 -71
144 -208 217 -369 196z m208 -113 c40 -28 66 -57 88 -95 28 -49 31 -64 31
-135 0 -63 -5 -89 -22 -120 -96 -179 -329 -209 -461 -60 -43 49 -72 121 -72
180 0 73 30 138 90 197 69 67 98 78 207 75 77 -2 84 -4 139 -42z"/>
<path d="M1222 4836 c-45 -16 -98 -70 -113 -113 -6 -20 -9 -55 -6 -79 18 -165
239 -216 328 -75 93 146 -48 326 -209 267z m125 -82 c51 -33 56 -126 8 -170
-20 -18 -37 -24 -73 -24 -91 1 -140 84 -95 161 33 56 103 71 160 33z"/>
</g>
</svg>
